# xmcd
#
# Track frame offsets:
# 150
# 28829
# 49095
# 78143
# 106188
# 131716
# 166063
# 200224
# 229547
# 265435
#
# Disc length: 3817 seconds
#
#
# Revision: 0
# Processed by: cddbd v1.5.1PL0 Copyright (c) Steve Scherf et al.
# Submitted via: FreeRIP 2.942 
#
DISCID=810ee70a
DTITLE=Fred Arrais - Eu me prosto
DYEAR=2005
DGENRE=gospel
TTITLE0=Eu quero Mais
TTITLE1=Prisioneiro
TTITLE2=Mais que canções
TTITLE3=Meu coração é Teu
TTITLE4=Meu Desejo
TTITLE5=No Secreto do meu Coação - Eu me prosto
TTITLE6=Toca-me
TTITLE7=Vem mudar meu coração
TTITLE8=Eu vejo o Senhor
TTITLE9=Estende a tua mão
EXTD=
EXTT0=
EXTT1=
EXTT2=
EXTT3=
EXTT4=
EXTT5=
EXTT6=
EXTT7=
EXTT8=
EXTT9=
PLAYORDER=
